<?xml version="1.0" encoding="UTF-8" standalone="no"?>
<svg width="109px" height="404px" viewBox="0 0 109 404" version="1.1" xmlns="http://www.w3.org/2000/svg" xmlns:xlink="http://www.w3.org/1999/xlink">
    <!-- Generator: Sketch 3.6.1 (26313) - http://www.bohemiancoding.com/sketch -->
    <title>A4</title>
    <desc>Created with Sketch.</desc>
    <defs></defs>
    <g id="Welcome" stroke="none" stroke-width="1" fill="none" fill-rule="evenodd">
        <g id="A4">
            <g id="coffee-drip" transform="translate(-3.000000, 42.000000)" fill="#422424">
                <path d="M7.98013334,64.2648487 C13.0376927,64.2648487 14.4932728,60.6043978 12.0958099,56.1276879 C9.69834709,51.6509781 11.0176997,48.0426341 7.98013353,48.0426341 C4.9425674,48.0426341 6.87634969,51.5980394 4.06162458,56.1276879 C1.24689947,60.6573365 2.92257403,64.2648487 7.98013334,64.2648487 Z" id="Oval-6"></path>
                <path d="M8.27805453,106.737704 C13.3356138,106.737704 14.791194,103.077253 12.3937311,98.6005434 C9.99626828,94.1238335 11.3156208,90.5154895 8.27805471,90.5154895 C5.24048859,90.5154895 7.17427088,94.0708948 4.35954577,98.6005434 C1.54482065,103.130192 3.22049522,106.737704 8.27805453,106.737704 Z" id="Oval-6-Copy"></path>
                <path d="M8.27805453,149.21056 C13.3356138,149.21056 14.791194,145.550109 12.3937311,141.073399 C9.99626828,136.596689 11.3156208,132.988345 8.27805471,132.988345 C5.24048859,132.988345 7.17427088,136.54375 4.35954577,141.073399 C1.54482065,145.603047 3.22049522,149.21056 8.27805453,149.21056 Z" id="Oval-6-Copy-2"></path>
                <path d="M8.27805453,191.683415 C13.3356138,191.683415 14.791194,188.022964 12.3937311,183.546254 C9.99626828,179.069544 11.3156208,175.4612 8.27805471,175.4612 C5.24048859,175.4612 7.17427088,179.016606 4.35954577,183.546254 C1.54482065,188.075903 3.22049522,191.683415 8.27805453,191.683415 Z" id="Oval-6-Copy-3"></path>
                <path d="M8.27805453,234.156271 C13.3356138,234.156271 14.791194,230.49582 12.3937311,226.01911 C9.99626828,221.5424 11.3156208,217.934056 8.27805471,217.934056 C5.24048859,217.934056 7.17427088,221.489461 4.35954577,226.01911 C1.54482065,230.548758 3.22049522,234.156271 8.27805453,234.156271 Z" id="Oval-6-Copy-4"></path>
                <path d="M8.27805453,276.629126 C13.3356138,276.629126 14.791194,272.968675 12.3937311,268.491965 C9.99626828,264.015255 11.3156208,260.406911 8.27805471,260.406911 C5.24048859,260.406911 7.17427088,263.962317 4.35954577,268.491965 C1.54482065,273.021614 3.22049522,276.629126 8.27805453,276.629126 Z" id="Oval-6-Copy-5"></path>
                <path d="M8.27805453,319.101981 C13.3356138,319.101981 14.791194,315.441531 12.3937311,310.964821 C9.99626828,306.488111 11.3156208,302.879767 8.27805471,302.879767 C5.24048859,302.879767 7.17427088,306.435172 4.35954577,310.964821 C1.54482065,315.494469 3.22049522,319.101981 8.27805453,319.101981 Z" id="Oval-6-Copy-6"></path>
                <path d="M8.27805453,361.574837 C13.3356138,361.574837 14.791194,357.914386 12.3937311,353.437676 C9.99626828,348.960966 11.3156208,345.352622 8.27805471,345.352622 C5.24048859,345.352622 7.17427088,348.908028 4.35954577,353.437676 C1.54482065,357.967325 3.22049522,361.574837 8.27805453,361.574837 Z" id="Oval-6-Copy-7"></path>
                <path d="M11.4070038,20.3897096 C14.4806856,20.3897096 16.440427,17.6147362 13.0703137,10.8890617 C9.70020045,4.16338723 12.7637554,1.40228367 9.6900736,1.40228367 C6.61639179,1.40228367 4.12468037,5.64965887 4.12468037,10.8890617 C4.12468037,16.1284645 8.33332199,20.3897096 11.4070038,20.3897096 Z" id="Oval-5" fill-opacity="0.853317482" transform="translate(9.480200, 10.895997) rotate(-329.000000) translate(-9.480200, -10.895997) "></path>
            </g>
            <g id="Group" transform="translate(7.000000, 5.000000)">
                <g id="Coffee-Mug" transform="translate(47.685211, 64.660796) rotate(-8.000000) translate(-47.685211, -64.660796) translate(4.685211, 35.160796)">
                    <path d="M75.9157957,35.841141 C81.0192348,35.841141 85.1563897,30.6863341 85.1563897,24.3275576 C85.1563897,17.9687811 81.0192348,12.8139742 75.9157957,12.8139742 C70.8123565,12.8139742 66.6752016,17.9687811 66.6752016,24.3275576 C66.6752016,30.6863341 70.8123565,35.841141 75.9157957,35.841141 Z M76.1050417,34.2239291 C80.4401951,34.2239291 83.9545313,29.9012399 83.9545313,24.5689325 C83.9545313,19.2366252 80.4401951,14.913936 76.1050417,14.913936 C71.7698882,14.913936 68.255552,19.2366252 68.255552,24.5689325 C68.255552,29.9012399 71.7698882,34.2239291 76.1050417,34.2239291 Z" id="Combined-Shape" stroke="#999999" stroke-width="3.29999995" fill="#F5EEEE"></path>
                    <path d="M75.9157957,33.0599656 C79.7864684,33.0599656 82.9242686,29.1503334 82.9242686,24.3275576 C82.9242686,19.5047819 79.7864684,15.5951496 75.9157957,15.5951496 C72.045123,15.5951496 68.9073228,19.5047819 68.9073228,24.3275576 C68.9073228,29.1503334 72.045123,33.0599656 75.9157957,33.0599656 Z M76.0593281,31.833401 C79.3472992,31.833401 82.0127263,28.5548834 82.0127263,24.510627 C82.0127263,20.4663706 79.3472992,17.187853 76.0593281,17.187853 C72.7713571,17.187853 70.10593,20.4663706 70.10593,24.510627 C70.10593,28.5548834 72.7713571,31.833401 76.0593281,31.833401 Z" id="Combined-Shape" stroke="#999999" stroke-width="3.29999995" fill="#F5EEEE"></path>
                    <path d="M2.66466145,40.5052811 C0.357144425,27.6422173 0.518965164,-4.97379915e-14 0.518965164,-4.97379915e-14 L10.1122543,-4.97379915e-14 L77.0826117,-4.97379915e-14 C77.0826117,-4.97379915e-14 76.7600707,27.3509011 73.2750468,40.5052811 C69.7900229,53.6596611 66.0150412,58.6956522 66.0150412,58.6956522 L11.048433,58.6956522 C11.048433,58.6956522 3.86696704,47.2074347 2.66466145,40.5052811 Z" id="Rectangle-2" stroke="#979797" stroke-width="2.29999995" fill="#F6EFEF"></path>
                </g>
                <path d="M18.5612834,0.563946751 C19.5003571,-2.49943323 26.6230658,7.91581647 26.6230658,7.91581647 L12.98963,15.9613759 L22.6410098,28.8371023" id="Path-1" stroke="#C6C6C6"></path>
                <path d="M31.3962597,0.563946751 C32.3353334,-2.49943323 39.4580421,7.91581647 39.4580421,7.91581647 L25.8246063,15.9613759 L35.4759861,28.8371023" id="Path-1" stroke="#C6C6C6"></path>
                <path d="M45.398052,0.563946751 C46.3371257,-2.49943323 53.4598345,7.91581647 53.4598345,7.91581647 L39.8263987,15.9613759 L49.4777785,28.8371023" id="Path-1-Copy" stroke="#C6C6C6"></path>
            </g>
        </g>
    </g>
</svg>