<?xml version="1.0" encoding="UTF-8" standalone="no"?>
<svg width="113px" height="113px" viewBox="0 0 113 113" version="1.1" xmlns="http://www.w3.org/2000/svg" xmlns:xlink="http://www.w3.org/1999/xlink">
    <!-- Generator: Sketch 3.7.1 (28215) - http://www.bohemiancoding.com/sketch -->
    <title>CSS</title>
    <desc>Created with Sketch.</desc>
    <defs></defs>
    <g id="Welcome" stroke="none" stroke-width="1" fill="none" fill-rule="evenodd">
        <g id="A4" transform="translate(0.000000, -200.000000)">
            <g id="Skill" transform="translate(0.000000, 49.000000)">
                <g id="CSS" transform="translate(0.000000, 150.933855)">
                    <path d="M56.5,112.863418 C87.7040884,112.863418 113,87.6363041 113,56.5170822 C113,25.3978603 87.7040884,0.170746472 56.5,0.170746472 C25.2959116,0.170746472 0,25.3978603 0,56.5170822 C0,87.6363041 25.2959116,112.863418 56.5,112.863418 Z" id="Oval-15" fill-opacity="0.918987772" fill="#501616"></path>
                    <text id="CSS3" font-family="Avenir-Medium, Avenir" font-size="15.2994473" font-weight="400" fill="#FFFFFF">
                        <tspan x="38.0225026" y="29.8473813">CSS3</tspan>
                    </text>
                    <g id="CSS-Icon" transform="translate(29.911765, 39.229504)">
                        <polygon id="Path-9" fill="#FFFFFF" points="9.78930481 11.5625493 43.733819 11.5625493 40.6175988 46.5732359 26.7752592 50.3561472 12.9764444 46.5690004 12.1062489 35.8404656 18.6718864 35.8404656 19.0818245 41.0365229 26.664957 43.2761976 34.2811801 41.2077584 35.052998 32.423623 19.3636391 32.423623 18.6561173 25.3951045 35.5472727 25.3951045 36.2791419 18.4534139 10.4087758 18.4534139"></polygon>
                        <path d="M26.9205882,18.6173918 L26.9205882,25.0669882" id="Line" stroke="#FFFFFF" stroke-linecap="square"></path>
                        <path d="M26.9205882,32.5804356 L26.9205882,42.9529825" id="Line-Copy" stroke="#FFFFFF" stroke-linecap="square"></path>
                        <polygon id="Path-10" stroke="#FFFFFF" points="26.9475023 4.99339149 49.3647921 4.99339149 45.046092 52.2410026 26.9205882 57.3689185 26.9205882 49.5234063 40.3055926 45.8748973 43.0636141 12.1549254 26.9416961 12.1549254"></polygon>
                        <polygon id="Path-4" stroke="#FFFFFF" stroke-width="2" points="0.201426025 0.293282175 54.2845923 0.322693163 49.662769 56.0767349 27.5959819 61.9819098 5.20294847 56.2605536"></polygon>
                    </g>
                </g>
            </g>
        </g>
    </g>
</svg>