<?xml version="1.0" encoding="UTF-8" standalone="no"?>
<svg width="108px" height="109px" viewBox="0 0 108 109" version="1.1" xmlns="http://www.w3.org/2000/svg" xmlns:xlink="http://www.w3.org/1999/xlink">
    <!-- Generator: Sketch 3.6.1 (26313) - http://www.bohemiancoding.com/sketch -->
    <title>FB</title>
    <desc>Created with Sketch.</desc>
    <defs></defs>
    <g id="Welcome" stroke="none" stroke-width="1" fill="none" fill-rule="evenodd">
        <g id="Desktop-HD-Copy-4" transform="translate(-1125.000000, -482.000000)" stroke-width="3">
            <g id="FB" transform="translate(1125.000000, 482.000000)">
                <rect id="Rectangle-13" stroke="#FFFFFF" x="0" y="0" width="108" height="108" rx="12"></rect>
                <path d="M57.8378992,106.540217 L57.5011838,64.7934974 L43.9906277,64.7251957 L44.0038087,48.3375802 L58.2992353,48.3375802 L58.0308216,34.848593 C58.0308216,34.848593 58.5233119,17.607806 74.8558077,14.7499182 C74.8558077,14.7499182 81.655779,14.6286595 84.9663357,14.7499182 C87.1518692,14.8299698 91.3685708,14.7499182 91.3685708,14.7499182 L91.3440784,29.4481184 L79.1860096,29.4481184 C79.1860096,29.4481184 74.7851075,29.304173 74.7851094,36.3632132 C74.7851113,43.4222534 74.7851094,47.6299041 74.7851094,47.6299041 L91.3685701,47.6299041 L88.4742086,64.6544975 L75.4189905,64.6544975 L75.4189905,106.549961 L57.8378992,106.540217 Z" id="Path-33" stroke="#FDFDFD"></path>
            </g>
        </g>
    </g>
</svg>